# MagicaVoxel @ Ephtracy

# group
g cube

# material
mtllib cube.mtl
usemtl palette

# normals
vn -1 0 0
vn 1 0 0
vn 0 0 1
vn 0 0 -1
vn 0 -1 0
vn 0 1 0

# texcoords
vt 0.970703 0.5
vt 0.974609 0.5
vt 0.986328 0.5
vt 0.990234 0.5

# verts
v -1.5 0 0.5
v -1.5 0 -1.5
v -1.5 1 1.5
v -1.5 1 0.5
v -1.5 1 -0.5
v -1.5 1 -1.5
v -1.5 2 0.5
v -1.5 2 -0.5
v -1.5 3 1.5
v -1.5 3 0.5
v -1.5 3 -0.5
v -1.5 3 -1.5
v 0.5 0 1.5
v 0.5 0 0.5
v 0.5 1 1.5
v 0.5 1 0.5
v 0.5 2 1.5
v 0.5 2 0.5
v 0.5 2 -0.5
v 0.5 2 -1.5
v 0.5 3 1.5
v 0.5 3 -1.5
v -0.5 0 0.5
v -0.5 0 -0.5
v -0.5 1 0.5
v -0.5 1 -0.5
v -0.5 2 1.5
v -0.5 2 0.5
v -0.5 2 -0.5
v -0.5 2 -1.5
v -0.5 3 1.5
v -0.5 3 0.5
v -0.5 3 -0.5
v -0.5 3 -1.5
v 1.5 0 1.5
v 1.5 0 0.5
v 1.5 0 -0.5
v 1.5 0 -1.5
v 1.5 1 0.5
v 1.5 1 -0.5
v 1.5 2 1.5
v 1.5 2 0.5
v 1.5 2 -0.5
v 1.5 3 1.5
v 1.5 3 -1.5
v -1.5 1 1.5
v -1.5 3 1.5
v -0.5 2 1.5
v -0.5 3 1.5
v 0.5 0 1.5
v 0.5 1 1.5
v 0.5 2 1.5
v 0.5 3 1.5
v 1.5 0 1.5
v 1.5 2 1.5
v 1.5 3 1.5
v -1.5 0 0.5
v -1.5 1 0.5
v -0.5 0 0.5
v -0.5 1 0.5
v -1.5 2 -0.5
v -1.5 3 -0.5
v -0.5 0 -0.5
v -0.5 1 -0.5
v -0.5 2 -0.5
v -0.5 3 -0.5
v 0.5 0 -0.5
v 0.5 1 -0.5
v 1.5 0 -0.5
v 1.5 1 -0.5
v -1.5 2 0.5
v -1.5 3 0.5
v -0.5 2 0.5
v -0.5 3 0.5
v 0.5 0 0.5
v 0.5 1 0.5
v 1.5 0 0.5
v 1.5 1 0.5
v -1.5 0 -1.5
v -1.5 1 -1.5
v -1.5 3 -1.5
v -0.5 0 -1.5
v -0.5 1 -1.5
v -0.5 2 -1.5
v -0.5 3 -1.5
v 0.5 0 -1.5
v 0.5 2 -1.5
v 0.5 3 -1.5
v 1.5 0 -1.5
v 1.5 3 -1.5
v 0.5 0 1.5
v 1.5 0 1.5
v -1.5 0 0.5
v -0.5 0 0.5
v 0.5 0 0.5
v 1.5 0 0.5
v -0.5 0 -0.5
v 0.5 0 -0.5
v 1.5 0 -0.5
v -1.5 0 -1.5
v -0.5 0 -1.5
v 0.5 0 -1.5
v 1.5 0 -1.5
v -1.5 1 1.5
v 0.5 1 1.5
v -1.5 1 0.5
v -0.5 1 0.5
v 0.5 1 0.5
v 1.5 1 0.5
v -0.5 1 -0.5
v 0.5 1 -0.5
v 1.5 1 -0.5
v -0.5 2 1.5
v 0.5 2 1.5
v -1.5 2 0.5
v -0.5 2 0.5
v 0.5 2 0.5
v -1.5 2 -0.5
v -0.5 2 -0.5
v 0.5 2 -0.5
v -0.5 2 -1.5
v 0.5 2 -1.5
v -1.5 3 1.5
v -0.5 3 1.5
v 0.5 3 1.5
v 1.5 3 1.5
v -1.5 3 0.5
v -0.5 3 0.5
v -1.5 3 -0.5
v -0.5 3 -0.5
v -1.5 3 -1.5
v -0.5 3 -1.5
v 0.5 3 -1.5
v 1.5 3 -1.5

# faces
f 4/2/1 2/2/1 1/2/1
f 5/2/1 2/2/1 4/2/1
f 6/2/1 2/2/1 5/2/1
f 7/3/1 4/3/1 3/3/1
f 7/2/1 5/2/1 4/2/1
f 8/4/1 6/4/1 5/4/1
f 8/2/1 5/2/1 7/2/1
f 9/3/1 7/3/1 3/3/1
f 10/3/1 7/3/1 9/3/1
f 11/4/1 6/4/1 8/4/1
f 12/4/1 6/4/1 11/4/1
f 15/3/1 14/3/1 13/3/1
f 16/3/1 14/3/1 15/3/1
f 21/1/1 18/1/1 17/1/1
f 21/1/1 20/1/1 19/1/1
f 21/1/1 19/1/1 18/1/1
f 22/1/1 20/1/1 21/1/1
f 23/2/2 24/2/2 25/2/2
f 25/2/2 24/2/2 26/2/2
f 27/3/2 28/3/2 31/3/2
f 31/3/2 28/3/2 32/3/2
f 29/4/2 30/4/2 33/4/2
f 33/4/2 30/4/2 34/4/2
f 35/3/2 36/3/2 39/3/2
f 37/1/2 38/1/2 40/1/2
f 35/3/2 39/3/2 41/3/2
f 39/2/2 40/2/2 42/2/2
f 41/3/2 39/3/2 42/3/2
f 40/1/2 38/1/2 43/1/2
f 42/2/2 40/2/2 43/2/2
f 41/1/2 42/1/2 44/1/2
f 42/1/2 43/1/2 44/1/2
f 43/1/2 38/1/2 45/1/2
f 44/1/2 43/1/2 45/1/2
f 48/3/3 47/3/3 46/3/3
f 49/3/3 47/3/3 48/3/3
f 51/3/3 48/3/3 46/3/3
f 52/3/3 48/3/3 51/3/3
f 54/3/3 51/3/3 50/3/3
f 54/3/3 52/3/3 51/3/3
f 55/1/3 53/1/3 52/1/3
f 55/3/3 52/3/3 54/3/3
f 56/1/3 53/1/3 55/1/3
f 59/2/3 58/2/3 57/2/3
f 60/2/3 58/2/3 59/2/3
f 65/4/3 62/4/3 61/4/3
f 66/4/3 62/4/3 65/4/3
f 67/4/3 64/4/3 63/4/3
f 68/4/3 64/4/3 67/4/3
f 69/1/3 68/1/3 67/1/3
f 70/1/3 68/1/3 69/1/3
f 71/3/4 72/3/4 73/3/4
f 73/3/4 72/3/4 74/3/4
f 75/3/4 76/3/4 77/3/4
f 77/3/4 76/3/4 78/3/4
f 79/2/4 80/2/4 82/2/4
f 80/4/4 81/4/4 83/4/4
f 82/2/4 80/2/4 83/2/4
f 83/4/4 81/4/4 84/4/4
f 84/4/4 81/4/4 85/4/4
f 82/4/4 83/4/4 86/4/4
f 83/4/4 84/4/4 86/4/4
f 86/4/4 84/4/4 87/4/4
f 86/1/4 87/1/4 89/1/4
f 87/1/4 88/1/4 89/1/4
f 89/1/4 88/1/4 90/1/4
f 95/3/5 92/3/5 91/3/5
f 96/3/5 92/3/5 95/3/5
f 97/2/5 94/2/5 93/2/5
f 100/2/5 97/2/5 93/2/5
f 101/4/5 98/4/5 97/4/5
f 101/2/5 97/2/5 100/2/5
f 102/1/5 99/1/5 98/1/5
f 102/4/5 98/4/5 101/4/5
f 103/1/5 99/1/5 102/1/5
f 106/3/5 105/3/5 104/3/5
f 107/3/5 105/3/5 106/3/5
f 108/3/5 105/3/5 107/3/5
f 110/2/5 109/2/5 108/2/5
f 110/2/5 108/2/5 107/2/5
f 111/2/5 109/2/5 110/2/5
f 112/2/5 109/2/5 111/2/5
f 113/3/6 114/3/6 116/3/6
f 116/3/6 114/3/6 117/3/6
f 115/2/6 116/2/6 118/2/6
f 116/2/6 117/2/6 118/2/6
f 118/2/6 117/2/6 119/2/6
f 119/2/6 117/2/6 120/2/6
f 119/4/6 120/4/6 121/4/6
f 121/4/6 120/4/6 122/4/6
f 123/3/6 124/3/6 127/3/6
f 127/3/6 124/3/6 128/3/6
f 129/4/6 130/4/6 131/4/6
f 131/4/6 130/4/6 132/4/6
f 125/1/6 126/1/6 133/1/6
f 133/1/6 126/1/6 134/1/6
